<svg xmlns="http://www.w3.org/2000/svg" viewBox="6 11 36 26" width="24" height="24">
  <g fill="currentColor">
    <rect x="11" y="12" width="5" height="1"/><rect x="32" y="12" width="5" height="1"/><rect x="10" y="13" width="6" height="1"/><rect x="32" y="13" width="6" height="1"/><rect x="10" y="14" width="4" height="1"/><rect x="23" y="14" width="3" height="1"/><rect x="34" y="14" width="4" height="1"/><rect x="10" y="15" width="3" height="1"/><rect x="20" y="15" width="8" height="1"/><rect x="35" y="15" width="3" height="1"/><rect x="10" y="16" width="3" height="1"/><rect x="18" y="16" width="12" height="1"/><rect x="35" y="16" width="3" height="1"/><rect x="10" y="17" width="3" height="1"/><rect x="18" y="17" width="5" height="1"/><rect x="25" y="17" width="5" height="1"/><rect x="35" y="17" width="3" height="1"/><rect x="10" y="18" width="3" height="1"/><rect x="17" y="18" width="4" height="1"/><rect x="27" y="18" width="4" height="1"/><rect x="35" y="18" width="3" height="1"/><rect x="10" y="19" width="3" height="1"/><rect x="17" y="19" width="4" height="1"/><rect x="27" y="19" width="4" height="1"/><rect x="35" y="19" width="3" height="1"/><rect x="10" y="20" width="3" height="1"/><rect x="17" y="20" width="4" height="1"/><rect x="35" y="20" width="3" height="1"/><rect x="9" y="21" width="4" height="1"/><rect x="17" y="21" width="5" height="1"/><rect x="35" y="21" width="4" height="1"/><rect x="8" y="22" width="4" height="1"/><rect x="18" y="22" width="7" height="1"/><rect x="36" y="22" width="4" height="1"/><rect x="7" y="23" width="4" height="1"/><rect x="19" y="23" width="9" height="1"/><rect x="37" y="23" width="4" height="1"/><rect x="7" y="24" width="4" height="1"/><rect x="21" y="24" width="9" height="1"/><rect x="37" y="24" width="4" height="1"/><rect x="8" y="25" width="4" height="1"/><rect x="24" y="25" width="6" height="1"/><rect x="36" y="25" width="4" height="1"/><rect x="9" y="26" width="4" height="1"/><rect x="26" y="26" width="5" height="1"/><rect x="35" y="26" width="4" height="1"/><rect x="10" y="27" width="3" height="1"/><rect x="27" y="27" width="4" height="1"/><rect x="35" y="27" width="3" height="1"/><rect x="10" y="28" width="3" height="1"/><rect x="17" y="28" width="4" height="1"/><rect x="27" y="28" width="4" height="1"/><rect x="35" y="28" width="3" height="1"/><rect x="10" y="29" width="3" height="1"/><rect x="17" y="29" width="4" height="1"/><rect x="27" y="29" width="4" height="1"/><rect x="35" y="29" width="3" height="1"/><rect x="10" y="30" width="3" height="1"/><rect x="18" y="30" width="6" height="1"/><rect x="25" y="30" width="6" height="1"/><rect x="35" y="30" width="3" height="1"/><rect x="10" y="31" width="3" height="1"/><rect x="18" y="31" width="12" height="1"/><rect x="35" y="31" width="3" height="1"/><rect x="10" y="32" width="3" height="1"/><rect x="20" y="32" width="9" height="1"/><rect x="35" y="32" width="3" height="1"/><rect x="10" y="33" width="4" height="1"/><rect x="23" y="33" width="3" height="1"/><rect x="34" y="33" width="4" height="1"/><rect x="10" y="34" width="6" height="1"/><rect x="32" y="34" width="6" height="1"/><rect x="11" y="35" width="5" height="1"/><rect x="32" y="35" width="5" height="1"/>
  </g>
</svg>